<?xml version="1.0" encoding="iso-8859-1"?>
<!-- Generator: Adobe Illustrator 19.0.0, SVG Export Plug-In . SVG Version: 6.00 Build 0)  -->
<svg version="1.1" id="Capa_1" xmlns="http://www.w3.org/2000/svg" xmlns:xlink="http://www.w3.org/1999/xlink" x="0px" y="0px"
	 viewBox="0 0 512.2 512.2" style="enable-background:new 0 0 512.2 512.2;" xml:space="preserve">
<g>
	<g>
		<path d="M50.7,466.1c-0.4-1-1-2-1.8-2.8c-0.4-0.4-0.8-0.7-1.3-1s-1-0.6-1.5-0.8s-1-0.4-1.5-0.5c-1.7-0.3-3.4-0.2-5,0.5
			c-2.1,0.8-3.8,2.5-4.6,4.6c-1.1,2.6-0.8,5.6,0.7,8c1.6,2.4,4.3,3.8,7.2,3.8c1.1,0,2.2-0.2,3.2-0.7c1-0.4,2-1,2.8-1.8
			s1.4-1.8,1.8-2.8C51.6,470.5,51.6,468.2,50.7,466.1z"/>
	</g>
</g>
<g>
	<g>
		<path d="M229.9,466.1c-0.4-1-1-2-1.8-2.8s-1.8-1.4-2.8-1.8c-2.1-0.9-4.4-0.9-6.5,0c-1,0.4-2,1-2.8,1.8c-0.8,0.8-1.4,1.8-1.8,2.8
			c-0.4,1-0.7,2.1-0.7,3.2c0,1.1,0.2,2.2,0.7,3.2c0.4,1.1,1.1,2.1,1.8,2.9c2.4,2.4,6.1,3.2,9.3,1.8c1-0.4,2-1,2.8-1.8
			s1.4-1.8,1.8-2.8C230.8,470.5,230.8,468.2,229.9,466.1z"/>
	</g>
</g>
<g>
	<g>
		<path d="M509.5,429.4c-1.4-1.8-3.6-2.7-5.8-2.7h-51.2v-51.2c0-14.1-11.5-25.6-25.6-25.6H264.7v-25.6h136.5
			c14.1,0,25.6-11.5,25.6-25.6v-68.3c0-6.3-2.4-12.4-6.7-17.1c4.3-4.7,6.6-10.7,6.7-17.1V128c0-6.3-2.4-12.4-6.7-17.1
			c4.3-4.7,6.6-10.7,6.7-17.1V25.6c0-14.1-11.5-25.6-25.6-25.6H111.1C97,0,85.5,11.5,85.5,25.6v68.3c0,6.3,2.4,12.4,6.7,17.1
			c-4.3,4.7-6.6,10.7-6.7,17.1v68.3c0,6.3,2.4,12.4,6.7,17.1c-4.3,4.7-6.6,10.7-6.7,17.1v68.3c0,14.1,11.5,25.6,25.6,25.6h136.5
			v25.6H85.5c-14.1,0-25.6,11.5-25.6,25.6v51.2H8.7c-2.3,0-4.4,0.9-6,2.5c-1.6,1.6-2.5,3.8-2.5,6v68.3c0,2.3,0.9,4.4,2.5,6
			c1.6,1.6,3.8,2.5,6,2.5h136.5c2.3,0,4.4-0.9,6-2.5c1.6-1.6,2.5-3.8,2.5-6v-68.3c0-2.3-0.9-4.4-2.5-6c-1.6-1.6-3.8-2.5-6-2.5H77
			v-51.2c0-4.7,3.8-8.5,8.5-8.5h162.1v59.7h-59.7c-2.3,0-4.4,0.9-6,2.5c-1.6,1.6-2.5,3.8-2.5,6v68.3c0,2.3,0.9,4.4,2.5,6
			c1.6,1.6,3.8,2.5,6,2.5h136.5c2.3,0,4.4-0.9,6-2.5c1.6-1.6,2.5-3.8,2.5-6v-68.3c0-2.3-0.9-4.4-2.5-6c-1.6-1.6-3.8-2.5-6-2.5h-59.7
			v-59.7h162.1c4.7,0,8.5,3.8,8.5,8.5v51.2H367c-2.3,0-4.4,0.9-6,2.5c-1.6,1.6-2.5,3.8-2.5,6v68.3c0,2.3,0.9,4.4,2.5,6
			c1.6,1.6,3.8,2.5,6,2.5h136.5c2.3,0,4.4-0.9,6-2.5c1.6-1.6,2.5-3.8,2.5-6v-68.3C512,433.1,511.1,431,509.5,429.4z M136.7,443.7
			v51.2H17.3v-51.2H136.7z M409.9,196.3h-0.1c0,4.7-3.8,8.5-8.5,8.5h-66.5c2.3-7.1,1.9-14.8-1-21.7c5.6-6.5,8.3-15,7.7-23.6
			c-0.7-8.6-4.8-16.5-11.3-22.1c0.6-2.3,0.9-4.7,0.8-7.1c0-3.7-0.7-7.4-2.1-10.9h72.5c4.7,0,8.5,3.8,8.5,8.5V196.3z M111.1,17.1
			h290.1c4.7,0,8.5,3.8,8.5,8.5v68.3c0,4.7-3.8,8.5-8.5,8.5H311c-0.6-0.2-1.2-0.5-1.9-0.7c-2.3-11.4-10.7-20.5-21.8-23.7
			c-11.1-3.2-23.1,0.1-31.1,8.5c-8-8.4-20-11.7-31.1-8.5c-11.1,3.2-19.6,12.3-21.8,23.7c-0.7,0.2-1.3,0.5-1.9,0.7h-90.2
			c-4.7,0-8.5-3.8-8.5-8.5V25.6h-0.1C102.6,20.9,106.4,17.1,111.1,17.1z M316.3,186.7c1.9,2.4,2.9,5.4,2.9,8.5
			c0,6.9-5,12.8-11.8,13.8c-3.6,0.6-6.4,3.3-7.1,6.9c-0.1,0.3-0.1,0.6-0.2,0.8c-0.1,0.3-0.3,0.8-0.3,1.1c-0.1,0.3-0.2,0.6-0.3,0.9
			c0,0.1-0.4,1-0.4,1.2c-0.2,0.3-0.4,0.7-0.5,1l-0.5,0.8c-0.3,0.5-0.6,1-1,1.4l-0.6,0.8c-0.9,1.1-1.9,2-3,2.9l-0.7,0.5
			c-0.8,0.5-1.6,1-2.4,1.4c-0.4,0.2-0.9,0.4-1.4,0.6l-1.1,0.4l-0.8,0.2c-0.5,0.1-1,0.2-1.6,0.3l-0.9,0.1c-0.6,0.1-1.2,0.1-1.9,0.1
			c-9.9,0-17.9-8-18-18c0-4.7-3.8-8.5-8.5-8.5s-8.5,3.8-8.5,8.5c0,9.9-8,17.9-18,18c-0.6,0-1.2,0-1.9-0.1l-0.9-0.1
			c-0.5-0.1-1-0.2-1.6-0.3c-0.2-0.1-0.7-0.2-0.8-0.2l-1-0.3c-0.6-0.2-1.1-0.4-1.7-0.7c-0.8-0.4-1.5-0.8-2.2-1.3l-0.7-0.5
			c-1.1-0.8-2.1-1.8-3-2.8l-0.7-0.9c-0.3-0.4-0.6-0.9-0.9-1.4c-0.1-0.3-0.5-1-0.7-1.2c-0.1-0.3-0.6-1.4-0.7-1.7
			c-0.1-0.3-0.2-0.6-0.4-1.1c-0.1-0.3-0.1-0.6-0.2-0.9c-0.1-0.3-0.2-0.5-0.2-0.8c-0.6-3.6-3.5-6.4-7.1-6.9
			c-6.8-1.1-11.8-6.9-11.8-13.8c0-3.1,1-6.1,2.9-8.5c1.4-1.8,2-4.2,1.7-6.5c-0.3-2.3-1.6-4.4-3.5-5.7c-4.4-3.1-6.8-8.3-6.4-13.7
			c0.4-5.4,3.7-10.1,8.5-12.5c2.1-1,3.7-2.9,4.4-5.2c0.7-2.2,0.4-4.7-0.7-6.7c-1.1-1.9-1.6-4-1.6-6.2c0-5,3-9.5,7.5-11.5l0.1-0.1
			c1.6-0.7,3.3-1,5-1c2.4-0.2,4.6-1.3,6.2-3.1c1.6-1.9,2.5-4.3,2.3-6.8c0-7.7,6.3-14,14-14c7.7,0,14,6.3,14,14
			c0,4.7,3.8,8.5,8.5,8.5c4.7,0,8.5-3.8,8.5-8.5c0-7.7,6.3-14,14-14c3.8,0.1,7.5,1.7,10.1,4.5c2.6,2.8,4,6.5,3.8,10.4
			c-0.1,2.3,0.7,4.6,2.3,6.3c1.6,1.7,3.9,2.7,6.2,2.7c1.7,0,3.4,0.3,4.9,1c0.1,0,0.1,0.1,0.2,0.1c4.6,2,7.5,6.5,7.5,11.5
			c0,2.2-0.5,4.3-1.6,6.2c-1.2,2-1.4,4.5-0.7,6.7c0.7,2.2,2.3,4.1,4.4,5.2c4.8,2.4,8.1,7.1,8.5,12.5c0.4,5.4-2,10.6-6.4,13.7
			c-1.9,1.3-3.1,3.4-3.5,5.7C314.2,182.6,314.9,184.9,316.3,186.7z M111.1,119.5h72.5c-1.4,3.5-2.1,7.2-2.1,10.9
			c0,2.4,0.3,4.8,0.8,7.1c-6.6,5.6-10.6,13.5-11.3,22.1c-0.7,8.6,2.1,17.1,7.7,23.6c-2.9,6.9-3.3,14.6-1,21.7h-66.5
			c-4.7,0-8.5-3.8-8.5-8.5V128h-0.1C102.6,123.3,106.4,119.5,111.1,119.5z M315.9,443.7v51.2H196.5v-51.2H315.9z M111.1,307.2
			c-4.7,0-8.5-3.8-8.5-8.5v-68.3c0-4.7,3.8-8.5,8.5-8.5h80.2c1.7,1.1,3.6,2,5.5,2.7l0.2,0.5c0.3,0.7,0.6,1.4,0.9,2.1
			c0.2,0.4,0.3,0.8,0.5,1.1c0.3,0.6,0.6,1.2,0.9,1.7c0.1,0.3,0.3,0.5,0.3,0.6c0.6,1,1.2,1.9,1.9,2.8l1.3,1.7c1.7,2,3.7,3.9,5.8,5.5
			l1.4,1c1.4,0.9,2.8,1.7,4.2,2.4c1,0.5,2.1,1,3.2,1.4c0.6,0.2,1.3,0.4,1.9,0.6c0.4,0.1,0.8,0.3,1.3,0.4c1.2,0.3,2.4,0.6,3.7,0.8
			c0.5,0.1,1,0.2,1.1,0.2c1.4,0.2,2.8,0.3,4.2,0.3c10.2,0,19.8-4.4,26.5-12.1c6.6,7.7,16.3,12.1,26.5,12.1c1.2,0,2.4-0.1,3.6-0.2
			c0.6,0,1.1-0.1,1.7-0.2c1.1-0.1,2.1-0.4,3.1-0.6c0.6-0.1,1.2-0.3,1.8-0.5c0.6-0.2,1.3-0.4,2-0.7c1-0.4,2-0.8,2.9-1.2
			c1.7-0.8,3.3-1.7,4.8-2.8l1.1-0.8c2.3-1.7,4.3-3.7,6.1-5.9l0.9-1.2c0.7-0.9,1.3-1.8,1.8-2.7c0.1-0.1,0.3-0.5,0.5-0.8
			c0.3-0.5,0.6-1.1,0.9-1.7c0.2-0.4,0.4-0.8,0.5-1.1c0.3-0.6,0.5-1.2,0.8-1.8c0.1-0.3,0.2-0.6,0.3-0.9c1.9-0.7,3.8-1.6,5.5-2.7h80.2
			c4.7,0,8.5,3.8,8.5,8.5v68.3c0,4.7-3.8,8.5-8.5,8.5H111.1z M495.2,494.9h-0.1H375.7v-51.2h119.5V494.9z"/>
	</g>
</g>
<g>
	<g>
		<path d="M409.1,466.1c-0.4-1-1-2-1.8-2.8s-1.8-1.4-2.8-1.8c-2.1-0.9-4.4-0.9-6.5,0c-1,0.4-2,1-2.8,1.8s-1.4,1.8-1.8,2.8
			c-0.9,2.1-0.9,4.4,0,6.5c0.4,1,1.1,2,1.8,2.8c0.8,0.8,1.8,1.4,2.8,1.8c2.1,0.9,4.4,0.9,6.5,0c1-0.4,2-1,2.8-1.8
			C409.7,473,410.5,469.3,409.1,466.1z"/>
	</g>
</g>
<g>
	<g>
		<path d="M128.2,51.3c-4.7,0-8.5,3.8-8.5,8.5c0,1.1,0.2,2.2,0.7,3.2c0.4,1,1,2,1.7,2.8c0.8,0.8,1.8,1.4,2.8,1.8
			c3.2,1.4,6.9,0.7,9.3-1.8C135,65,135.6,64,136,63c0.4-1,0.7-2.1,0.7-3.2C136.7,55.1,132.9,51.3,128.2,51.3z"/>
	</g>
</g>
<g>
	<g>
		<path d="M170.1,56.5c-0.4-1-1-2-1.8-2.8c-3.4-3.2-8.7-3.2-12.1,0c-0.8,0.8-1.4,1.8-1.8,2.8c-1.1,2.6-0.8,5.6,0.7,8
			c1.7,2.4,4.4,3.8,7.2,3.8c2.9,0,5.5-1.4,7.1-3.8C171,62.1,171.3,59.1,170.1,56.5z"/>
	</g>
</g>
<g>
	<g>
		<path d="M350.1,42.7c-4.7,0-8.5,3.8-8.5,8.5v17.1c0,2.3,0.9,4.4,2.5,6c1.6,1.6,3.7,2.5,6,2.5s4.4-0.9,6-2.5c1.6-1.6,2.5-3.8,2.5-6
			V51.2C358.6,46.5,354.8,42.7,350.1,42.7z"/>
	</g>
</g>
<g>
	<g>
		<path d="M315.9,42.7c-4.7,0-8.5,3.8-8.5,8.5v17.1c0,2.3,0.9,4.4,2.5,6c1.6,1.6,3.8,2.5,6,2.5c2.3,0,4.4-0.9,6-2.5
			c1.6-1.6,2.5-3.8,2.5-6V51.2C324.4,46.5,320.6,42.7,315.9,42.7z"/>
	</g>
</g>
<g>
	<g>
		<path d="M384.2,42.7c-4.7,0-8.5,3.8-8.5,8.5v17.1c0,2.3,0.9,4.4,2.5,6c1.6,1.6,3.7,2.5,6,2.5s4.4-0.9,6-2.5c1.6-1.6,2.5-3.8,2.5-6
			V51.2C392.7,46.5,388.9,42.7,384.2,42.7z"/>
	</g>
</g>
<g>
	<g>
		<path d="M136.1,261.4c-0.5-1.1-1.1-2.1-1.8-2.9c-3.4-3.2-8.7-3.2-12.1,0c-0.8,0.8-1.4,1.8-1.8,2.8c-1.4,3.2-0.6,6.9,1.8,9.3
			c0.8,0.8,1.8,1.4,2.8,1.8c2.6,1.1,5.6,0.8,8-0.7c2.4-1.6,3.8-4.3,3.8-7.1C136.8,263.5,136.6,262.4,136.1,261.4z"/>
	</g>
</g>
<g>
	<g>
		<path d="M170.2,261.4c-0.4-1.1-1.1-2.1-1.8-2.9c-3.4-3.2-8.7-3.2-12.1,0c-0.8,0.8-1.4,1.8-1.8,2.8c-1.4,3.2-0.6,6.9,1.8,9.3
			c0.8,0.8,1.8,1.4,2.8,1.8c2.6,1.1,5.6,0.8,8-0.7c2.4-1.6,3.8-4.3,3.8-7.1C170.9,263.5,170.7,262.4,170.2,261.4z"/>
	</g>
</g>
<g>
	<g>
		<path d="M356.1,250c-1.6-1.6-3.8-2.5-6-2.5c-2.3,0-4.4,0.9-6,2.5c-1.6,1.6-2.5,3.8-2.5,6v17.1c0,4.7,3.8,8.5,8.5,8.5
			s8.5-3.8,8.5-8.5V256C358.6,253.7,357.7,251.6,356.1,250z"/>
	</g>
</g>
<g>
	<g>
		<path d="M321.9,250c-1.5-1.6-3.7-2.5-6-2.5s-4.4,0.9-6,2.5c-1.6,1.6-2.5,3.8-2.5,6v17.1c0,4.7,3.8,8.5,8.5,8.5s8.5-3.8,8.5-8.5
			V256C324.4,253.7,323.5,251.6,321.9,250z"/>
	</g>
</g>
<g>
	<g>
		<path d="M390.2,250c-1.6-1.6-3.7-2.5-6-2.5s-4.4,0.9-6,2.5c-1.6,1.6-2.5,3.8-2.5,6v17.1c0,4.7,3.8,8.5,8.5,8.5s8.5-3.8,8.5-8.5
			V256C392.7,253.7,391.8,251.6,390.2,250z"/>
	</g>
</g>
<g>
	<g>
		<path d="M131.5,154.2c-3.2-1.3-6.9-0.6-9.3,1.9c-0.8,0.8-1.4,1.8-1.8,2.8c-1.1,2.6-0.8,5.6,0.7,8c1.6,2.4,4.2,3.8,7.1,3.8
			c2.3,0,4.5-0.9,6.1-2.5c1.6-1.6,2.5-3.8,2.5-6.1C136.8,158.6,134.7,155.5,131.5,154.2z"/>
	</g>
</g>
<g>
	<g>
		<path d="M390.2,147.6c-1.6-1.6-3.7-2.5-6-2.5s-4.4,0.9-6,2.5c-1.6,1.6-2.5,3.8-2.5,6v17.1c0,4.7,3.8,8.5,8.5,8.5s8.5-3.8,8.5-8.5
			v-17.1C392.7,151.3,391.8,149.2,390.2,147.6z"/>
	</g>
</g>
<g>
</g>
<g>
</g>
<g>
</g>
<g>
</g>
<g>
</g>
<g>
</g>
<g>
</g>
<g>
</g>
<g>
</g>
<g>
</g>
<g>
</g>
<g>
</g>
<g>
</g>
<g>
</g>
<g>
</g>
</svg>
